<?xml version="1.0" encoding="UTF-8" standalone="no"?>
<!-- Created with Inkscape (http://www.inkscape.org/) -->

<svg
   xmlns:dc="http://purl.org/dc/elements/1.1/"
   xmlns:cc="http://creativecommons.org/ns#"
   xmlns:rdf="http://www.w3.org/1999/02/22-rdf-syntax-ns#"
   xmlns:svg="http://www.w3.org/2000/svg"
   xmlns="http://www.w3.org/2000/svg"
   xmlns:sodipodi="http://sodipodi.sourceforge.net/DTD/sodipodi-0.dtd"
   xmlns:inkscape="http://www.inkscape.org/namespaces/inkscape"
   width="43.561058"
   height="43.561058"
   id="svg9705"
   version="1.1"
   inkscape:version="0.48.1 r9760"
   sodipodi:docname="New document 16">
  <defs
     id="defs9707" />
  <sodipodi:namedview
     id="base"
     pagecolor="#ffffff"
     bordercolor="#666666"
     borderopacity="1.0"
     inkscape:pageopacity="0.0"
     inkscape:pageshadow="2"
     inkscape:zoom="15.839192"
     inkscape:cx="41.364201"
     inkscape:cy="22.498558"
     inkscape:document-units="px"
     inkscape:current-layer="layer1"
     showgrid="false"
     fit-margin-top="0.3"
     fit-margin-left="0.3"
     fit-margin-right="0.3"
     fit-margin-bottom="0.3"
     inkscape:window-width="1918"
     inkscape:window-height="1059"
     inkscape:window-x="0"
     inkscape:window-y="19"
     inkscape:window-maximized="1" />
  <metadata
     id="metadata9710">
    <rdf:RDF>
      <cc:Work
         rdf:about="">
        <dc:format>image/svg+xml</dc:format>
        <dc:type
           rdf:resource="http://purl.org/dc/dcmitype/StillImage" />
        <dc:title></dc:title>
      </cc:Work>
    </rdf:RDF>
  </metadata>
  <g
     inkscape:label="Layer 1"
     inkscape:groupmode="layer"
     id="layer1"
     transform="translate(-492.51053,-453.43736)">
    <g
       transform="translate(474.28572,-90.468675)"
       style="display:inline"
       id="g9684">
      <g
         transform="translate(0.25253836,538.49092)"
         id="g8734">
        <path
           inkscape:connector-curvature="0"
           id="path8736"
           d="m 31.606836,17.009561 c -2.988768,2.3909 -4.90625,6.0622 -4.90625,10.187499 0,4.1253 1.917482,7.7966 4.90625,10.1875 l 16.28125,0 c 2.988768,-2.3909 4.90625,-6.0622 4.90625,-10.1875 0,-4.125299 -1.917482,-7.796599 -4.90625,-10.187499 l -16.28125,0 z"
           style="fill:none;stroke:#000000;stroke-width:0.09162166;stroke-miterlimit:4;stroke-opacity:1;stroke-dasharray:none;stroke-dashoffset:0;display:inline" />
      </g>
      <path
         transform="matrix(1.1059967,0,0,1.1059967,11.301272,534.56313)"
         d="m 43.689098,28.14192 c 0,9.797976 -7.942828,17.740805 -17.740804,17.740805 -9.797976,0 -17.740805,-7.942829 -17.740805,-17.740805 0,-9.797976 7.942829,-17.740805 17.740805,-17.740805 9.797976,0 17.740804,7.942829 17.740804,17.740805 z"
         sodipodi:ry="17.740805"
         sodipodi:rx="17.740805"
         sodipodi:cy="28.14192"
         sodipodi:cx="25.948294"
         id="path9682"
         style="fill:none;stroke:#ff0000;stroke-width:3.34832788;stroke-miterlimit:4;stroke-opacity:1;stroke-dasharray:none;display:inline"
         sodipodi:type="arc" />
      <path
         sodipodi:type="arc"
         style="fill:none;stroke:#000000;stroke-width:3.34832788;stroke-miterlimit:4;stroke-opacity:1;stroke-dasharray:none;display:inline"
         id="path8738"
         sodipodi:cx="25.948294"
         sodipodi:cy="28.14192"
         sodipodi:rx="17.740805"
         sodipodi:ry="17.740805"
         d="m 43.689098,28.14192 c 0,9.797976 -7.942828,17.740805 -17.740804,17.740805 -9.797976,0 -17.740805,-7.942829 -17.740805,-17.740805 0,-9.797976 7.942829,-17.740805 17.740805,-17.740805 9.797976,0 17.740804,7.942829 17.740804,17.740805 z"
         transform="matrix(1.0037713,0,0,1.0037713,13.953847,537.43995)" />
    </g>
  </g>
</svg>
