<?xml version="1.0" encoding="UTF-8" standalone="no"?>
<!-- Created with Inkscape (http://www.inkscape.org/) -->

<svg
   xmlns:dc="http://purl.org/dc/elements/1.1/"
   xmlns:cc="http://creativecommons.org/ns#"
   xmlns:rdf="http://www.w3.org/1999/02/22-rdf-syntax-ns#"
   xmlns:svg="http://www.w3.org/2000/svg"
   xmlns="http://www.w3.org/2000/svg"
   xmlns:sodipodi="http://sodipodi.sourceforge.net/DTD/sodipodi-0.dtd"
   xmlns:inkscape="http://www.inkscape.org/namespaces/inkscape"
   width="43.561058"
   height="43.561058"
   id="svg9705"
   version="1.1"
   inkscape:version="0.48.1 r9760"
   sodipodi:docname="banana_jack-output.svg">
  <defs
     id="defs9707" />
  <sodipodi:namedview
     id="base"
     pagecolor="#ffffff"
     bordercolor="#666666"
     borderopacity="1.0"
     inkscape:pageopacity="0.0"
     inkscape:pageshadow="2"
     inkscape:zoom="15.839192"
     inkscape:cx="18.256962"
     inkscape:cy="22.498558"
     inkscape:document-units="px"
     inkscape:current-layer="layer1"
     showgrid="false"
     fit-margin-top="0.3"
     fit-margin-left="0.3"
     fit-margin-right="0.3"
     fit-margin-bottom="0.3"
     inkscape:window-width="2560"
     inkscape:window-height="1363"
     inkscape:window-x="0"
     inkscape:window-y="24"
     inkscape:window-maximized="1" />
  <metadata
     id="metadata9710">
    <rdf:RDF>
      <cc:Work
         rdf:about="">
        <dc:format>image/svg+xml</dc:format>
        <dc:type
           rdf:resource="http://purl.org/dc/dcmitype/StillImage" />
        <dc:title />
      </cc:Work>
    </rdf:RDF>
  </metadata>
  <g
     inkscape:label="Layer 1"
     inkscape:groupmode="layer"
     id="layer1"
     transform="translate(-492.51053,-453.43736)">
    <path
       sodipodi:type="arc"
       style="fill:none;stroke:#000000;stroke-width:3.34832787999999981;stroke-miterlimit:4;stroke-opacity:1;stroke-dasharray:none;display:inline"
       id="path9682"
       sodipodi:cx="25.948294"
       sodipodi:cy="28.14192"
       sodipodi:rx="17.740805"
       sodipodi:ry="17.740805"
       d="m 43.689098,28.14192 c 0,9.797976 -7.942828,17.740805 -17.740804,17.740805 -9.797976,0 -17.740805,-7.942829 -17.740805,-17.740805 0,-9.797976 7.942829,-17.740805 17.740805,-17.740805 9.797976,0 17.740804,7.942829 17.740804,17.740805 z"
       transform="matrix(1.1059967,0,0,1.1059967,485.58699,444.09445)" />
    <path
       transform="matrix(1.0037713,0,0,1.0037713,488.23956,446.97127)"
       d="m 43.689098,28.14192 a 17.740805,17.740805 0 1 1 -35.481609,0 17.740805,17.740805 0 1 1 35.481609,0 z"
       sodipodi:ry="17.740805"
       sodipodi:rx="17.740805"
       sodipodi:cy="28.14192"
       sodipodi:cx="25.948294"
       id="path8738"
       style="fill:none;stroke:#ff0000;stroke-width:3.34832788;stroke-miterlimit:4;stroke-opacity:1;stroke-dasharray:none;display:inline"
       sodipodi:type="arc" />
    <path
       style="fill:none;stroke:#000000;stroke-width:0.09;stroke-miterlimit:4;stroke-opacity:1;stroke-dasharray:none;display:inline"
       d="m 505.53572,464.54742 c -3.08879,2.5326 -5.0625,6.3817 -5.0625,10.6875 0,4.2902 1.96175,8.1233 5.03125,10.6563 l 17.5625,0 c 3.0695,-2.533 5.03125,-6.3661 5.03125,-10.6563 0,-4.3058 -1.97371,-8.1549 -5.0625,-10.6875 l -17.5,0 z"
       id="rect2986"
       inkscape:connector-curvature="0" />
  </g>
</svg>
